<svg width="46" height="63" viewBox="0 0 46 63" fill="none" xmlns="http://www.w3.org/2000/svg">
<path d="M8.89478 1.86162V16.2252C8.89478 16.3781 8.95561 16.5247 9.06391 16.6327C9.1722 16.7408 9.31907 16.8015 9.47222 16.8015C9.62537 16.8015 9.77224 16.7408 9.88053 16.6327C9.98883 16.5247 10.0497 16.3781 10.0497 16.2252V1.86162C10.0497 1.70878 9.98883 1.5622 9.88053 1.45413C9.77224 1.34606 9.62537 1.28534 9.47222 1.28534C9.31907 1.28534 9.1722 1.34606 9.06391 1.45413C8.95561 1.5622 8.89478 1.70878 8.89478 1.86162Z" fill="black"/>
<path d="M23.2876 1.86162V16.2252C23.2876 16.3781 23.3484 16.5247 23.4567 16.6327C23.565 16.7408 23.7119 16.8015 23.865 16.8015C24.0182 16.8015 24.1651 16.7408 24.2734 16.6327C24.3817 16.5247 24.4425 16.3781 24.4425 16.2252V1.86162C24.4425 1.70878 24.3817 1.5622 24.2734 1.45413C24.1651 1.34606 24.0182 1.28534 23.865 1.28534C23.7119 1.28534 23.565 1.34606 23.4567 1.45413C23.3484 1.5622 23.2876 1.70878 23.2876 1.86162Z" fill="black"/>
<path d="M24.7511 0.566961H8.23461C8.06008 0.557288 7.8854 0.583242 7.72126 0.64324C7.55711 0.703238 7.40696 0.796019 7.27997 0.915906C7.15298 1.03579 7.05184 1.18027 6.98271 1.3405C6.91358 1.50073 6.87793 1.67335 6.87793 1.8478C6.87793 2.02225 6.91358 2.19488 6.98271 2.35511C7.05184 2.51534 7.15298 2.65982 7.27997 2.77971C7.40696 2.89959 7.55711 2.99237 7.72126 3.05237C7.8854 3.11236 8.06008 3.13832 8.23461 3.12865H24.7511C25.0792 3.11047 25.3878 2.96759 25.6136 2.72938C25.8394 2.49117 25.9653 2.17571 25.9653 1.8478C25.9653 1.51989 25.8394 1.20443 25.6136 0.966221C25.3878 0.728012 25.0792 0.585143 24.7511 0.566961Z" fill="#20DEA6"/>
<path d="M23.3826 14.4134C22.1961 13.624 20.0563 13.3082 18.1974 13.1701V13.0793C18.1974 13.0793 17.5013 13.0793 16.4928 13.0793C15.4842 13.0793 14.7921 13.0793 14.7921 13.0793V13.1701C12.9332 13.3082 10.7777 13.6437 9.603 14.4134C7.71016 15.6749 5.65627 16.6772 3.49631 17.3935C2.21798 17.8506 1.03336 18.5353 0 19.4144V56.0241H32.9856V19.4144C31.9541 18.5348 30.7706 17.85 29.4932 17.3935C27.3317 16.6781 25.2764 15.6757 23.3826 14.4134Z" fill="#20DEA6"/>
<path d="M4.97536 56.0246C4.52557 56.0246 4.08587 56.1577 3.71188 56.4071C3.3379 56.6565 3.04641 57.0109 2.87429 57.4256C2.70216 57.8403 2.65712 58.2967 2.74487 58.7369C2.83262 59.1772 3.04922 59.5816 3.36727 59.899C3.68532 60.2164 4.09054 60.4326 4.53169 60.5202C4.97284 60.6077 5.4301 60.5628 5.84565 60.391C6.2612 60.2192 6.61638 59.9283 6.86627 59.5551C7.11616 59.1818 7.24954 58.743 7.24954 58.2942C7.24954 57.6922 7.00994 57.1149 6.58345 56.6893C6.15695 56.2637 5.57851 56.0246 4.97536 56.0246Z" fill="#A7A7A7"/>
<path d="M27.3972 56.0258C26.9474 56.0258 26.5077 56.1589 26.1338 56.4083C25.7598 56.6577 25.4683 57.0121 25.2962 57.4268C25.124 57.8416 25.079 58.2979 25.1667 58.7382C25.2545 59.1784 25.4711 59.5828 25.7891 59.9002C26.1072 60.2176 26.5124 60.4338 26.9536 60.5214C27.3947 60.6089 27.852 60.564 28.2675 60.3922C28.6831 60.2204 29.0383 59.9295 29.2881 59.5563C29.538 59.1831 29.6714 58.7443 29.6714 58.2954C29.6714 57.6934 29.4318 57.1162 29.0053 56.6905C28.5788 56.2649 28.0004 56.0258 27.3972 56.0258Z" fill="#A7A7A7"/>
<path d="M16.3465 21.313C15.1837 21.313 7.18247 21.3644 0 25.4852V56.0241H32.9856V25.6312C25.7319 21.3643 17.529 21.2972 16.3465 21.313Z" fill="#40BF9A"/>
<path d="M44.8631 39.2951C44.0559 37.0515 36.3874 37.1321 35.3825 37.1523C32.0366 37.2207 28.6826 37.3295 25.3327 37.2409C21.9828 37.1523 18.6652 36.7857 15.3153 37.0757C13.4467 37.2368 11.4771 37.3053 11.3923 39.2951C11.3923 39.2951 11.2672 42.2314 11.1582 45.9371C10.9766 52.1038 10.8434 60.4052 11.3923 60.953C12.2366 61.7151 13.2734 62.2327 14.3908 62.4499C15.5081 62.6671 16.6638 62.5757 17.7329 62.1856C20.7276 61.1303 28.1257 60.4254 28.1257 60.4254C28.1257 60.4254 35.5237 61.1303 38.5184 62.1856C39.5883 62.5752 40.7444 62.6663 41.8624 62.4491C42.9803 62.2319 44.0177 61.7147 44.8631 60.953C45.412 60.4052 45.2667 52.0917 45.0931 45.9371C44.9841 42.2274 44.8631 39.2951 44.8631 39.2951Z" fill="#FACF5A"/>
<path d="M25.785 33.0599C23.9693 33.8176 22.3863 35.0403 21.1961 36.6044C20.5019 37.5067 22.0356 38.3848 22.7217 37.4946C22.4472 37.8531 22.7863 37.4302 22.871 37.3335C23.0809 37.0918 23.3029 36.8663 23.5289 36.6447C24.2425 35.9471 25.0592 35.363 25.9505 34.9127C28.9452 33.4305 31.6615 35.0497 33.5302 37.4946C34.2122 38.3888 35.75 37.4946 35.0598 36.6044C32.7996 33.6601 29.5264 31.5656 25.785 33.0599Z" fill="#FCDC85"/>
<path d="M35.379 37.1482C32.0331 37.2167 28.6792 37.3254 25.3293 37.2368C21.9794 37.1482 18.6618 36.7817 15.3119 37.0717C13.4432 37.2328 11.4736 37.3013 11.3889 39.2911C11.3889 39.2911 11.2638 42.2274 11.1548 45.933C14.7872 50.2509 21.043 53.0986 28.1061 53.0986C35.1691 53.0986 41.425 50.2509 45.0574 45.933C44.9525 42.2233 44.8273 39.2911 44.8273 39.2911C44.1856 36.9629 36.388 37.1482 35.379 37.1482Z" fill="#FCDC85"/>
<path d="M39.6166 46.9078C32.6342 50.6054 23.9568 50.0012 16.8695 46.9078C16.1794 46.6098 15.578 47.6208 16.2722 47.9269C23.7671 51.1935 32.8199 51.838 40.2098 47.9269C40.896 47.5724 40.2986 46.5534 39.6166 46.9078Z" fill="#FBB03B"/>
</svg>
