<svg width="87" height="40" viewBox="0 0 87 40" fill="none" xmlns="http://www.w3.org/2000/svg">
<path fill-rule="evenodd" clip-rule="evenodd" d="M4.93625 39.5891H0V12.547H4.93625V28.1971L10.7739 21.561H16.7232L9.58062 29.6736L18.38 39.5891H12.2848L4.92767 31.2962V39.5891H4.93625ZM26.4841 21.1661C31.7122 21.1661 35.9703 25.3126 35.9703 30.575C35.9703 35.8375 31.7122 39.984 26.4841 39.984C21.2559 39.984 16.9979 35.8375 16.9979 30.575C16.9979 25.3126 21.2559 21.1661 26.4841 21.1661ZM26.4841 25.7762C23.8915 25.7762 21.9771 27.7936 21.9771 30.575C21.9771 33.3479 23.8915 35.3739 26.4841 35.3739C29.0767 35.3739 30.9567 33.3565 30.9567 30.575C30.9482 27.8022 29.0767 25.7762 26.4841 25.7762ZM37.6529 30.575C37.6529 35.6916 41.3272 39.984 46.1261 39.984C48.6157 39.984 50.5215 38.722 51.3199 37.5716V39.5891H56.2561V21.561H51.3199V23.5784C50.5301 22.4281 48.6157 21.1661 46.1261 21.1661C41.3272 21.1661 37.6529 25.4585 37.6529 30.575ZM51.7148 30.575C51.7148 33.3909 49.8776 35.477 47.1734 35.477C44.4692 35.477 42.6321 33.3823 42.6321 30.575C42.6321 27.7678 44.4692 25.6731 47.1734 25.6731C49.869 25.6731 51.7148 27.7592 51.7148 30.575ZM76.6192 39.984C71.8203 39.984 68.146 35.6916 68.146 30.575C68.146 25.4585 71.8203 21.1661 76.6192 21.1661C79.1088 21.1661 81.0146 22.4281 81.813 23.5784V21.561H86.7493V39.5891H81.813V37.5716C81.0146 38.722 79.1088 39.984 76.6192 39.984ZM77.6666 35.477C80.3708 35.477 82.2079 33.3823 82.2079 30.575C82.2079 27.7678 80.3708 25.6731 77.6666 25.6731C74.9624 25.6731 73.1252 27.7678 73.1252 30.575C73.1252 33.3823 74.9624 35.477 77.6666 35.477Z" fill="white"/>
<path fill-rule="evenodd" clip-rule="evenodd" d="M49.8551 1.66979L49.8691 1.6787C50.7276 2.22813 52.5133 3.39566 54.11 5.67063C55.8442 8.14304 56.4451 10.6155 56.6683 12.1264C55.2861 10.3407 53.5177 8.40917 51.2685 6.57203C50.6418 6.05694 47.2937 3.34415 46.6155 2.82906C46.5285 2.76262 46.4427 2.6975 46.3584 2.63357L46.3584 2.63357C45.3866 1.89623 44.6248 1.31828 44.7354 0.725789C44.7869 0.451076 45.0101 0.27938 45.0702 0.236456C46.2221 -0.642404 49.0787 1.17562 49.8551 1.66979ZM51.8393 11.2339C51.9381 11.3004 52.0368 11.3669 52.1355 11.4313C53.0283 12.0838 54.359 13.2427 55.372 15.0541C55.8785 15.9469 56.1875 16.7968 56.3936 17.5093C53.7409 15.6293 51.5088 14.3673 50.1868 13.7492C48.7531 13.0882 47.4997 12.6847 47.4997 12.6847L47.391 12.6505C47.0071 12.5298 46.7051 12.4349 46.2807 12.3327C46.1117 12.2917 45.9209 12.2486 45.7102 12.201L45.7102 12.201L45.7101 12.201C45.1715 12.0793 44.5023 11.9281 43.731 11.706C43.4649 11.6288 43.1215 11.5257 42.8725 11.2167L42.8697 11.213C42.8045 11.1294 42.5475 10.7993 42.6236 10.4526C42.7008 10.0835 43.0957 9.87746 43.6194 9.6886C44.0875 9.51697 44.5839 9.40915 44.7866 9.36513L44.8384 9.35379L44.8642 9.34521C45.6712 9.2336 47.0447 9.15634 48.6501 9.61992C49.9636 9.99765 50.9336 10.5986 51.5432 11.0364C51.6419 11.1008 51.7406 11.1673 51.8393 11.2339ZM75.9152 2.29673C75.9324 2.19371 75.9753 1.90183 75.8122 1.69579C75.6319 1.47259 75.2971 1.47259 75.1855 1.47259C74.6619 1.47259 71.0048 2.24522 68.6182 5.76498C66.1887 9.34484 66.6866 13.414 66.927 14.8048C67.1759 14.1867 67.5193 13.3797 67.9743 12.4611L67.9758 12.4581C68.7565 10.871 69.5203 9.3182 70.6614 7.91118C71.4902 6.88476 72.6075 5.84087 73.5991 4.91433C74.8053 3.78726 75.8257 2.83384 75.9152 2.29673ZM73.1081 10.3838C75.8209 8.01443 78.1731 7.49076 79.1089 7.33623C79.7184 7.23321 81.8131 6.89841 82.2423 7.72255C82.2766 7.79122 82.3711 7.99726 82.2766 8.37499C81.9996 9.48964 80.5977 10.0976 78.4251 11.0397C77.7698 11.3238 77.0445 11.6383 76.2587 12.0064C75.0998 12.5472 73.7434 13.1911 72.2839 14.1268C70.4468 15.3029 69.1076 16.5391 68.2405 17.4148C68.996 15.5004 70.4125 12.7446 73.1081 10.3838Z" fill="#20DEA6"/>
<path d="M64.4794 27.0225C64.5815 26.9198 64.651 26.7892 64.6791 26.6471C64.7071 26.505 64.6926 26.3578 64.6373 26.224C64.5819 26.0902 64.4883 25.9757 64.3681 25.895C64.2478 25.8142 64.1064 25.7708 63.9616 25.7702H59.5549C59.4091 25.762 59.2641 25.7974 59.1385 25.872C59.0129 25.9465 58.9124 26.0569 58.8498 26.1889C58.79 26.3148 58.7706 26.4562 58.7942 26.5936C58.8179 26.731 58.8835 26.8577 58.982 26.9564C59.5035 27.9222 60.0213 32.2299 59.5549 33.1296C59.4528 33.2323 60.0045 33.5527 59.5549 33.5527C59.5268 33.6947 59.4996 33.8419 59.5549 33.9757C59.6102 34.1095 59.8487 34.318 59.9689 34.3987C60.0891 34.4794 59.4101 34.583 59.5549 34.5837H63.9616C64.1075 34.5919 63.836 34.5162 63.9616 34.4416C64.0872 34.367 63.7135 34.1077 63.7761 33.9757C63.071 33.9405 63.7998 33.8442 63.7761 33.7068C63.7761 33.7068 64.0602 32.6672 63.9616 32.5686C63.4402 31.6028 64.013 27.9222 64.4794 27.0225Z" fill="white"/>
<path d="M64.2041 34.4111C64.2277 34.8138 64.3343 35.1336 64.5239 35.3705C64.7134 35.6074 64.9384 35.7851 65.199 35.9035C65.4833 35.9983 65.7912 36.0575 66.1229 36.0812C66.4782 36.0812 66.8454 36.0575 67.2244 36.0101V39.6701C66.8928 39.7411 66.5967 39.7885 66.3361 39.8122C66.0992 39.8596 65.886 39.8951 65.6965 39.9188C65.4833 39.9425 65.3056 39.9425 65.1635 39.9188C64.2633 39.9188 63.4578 39.8833 62.7472 39.8122C62.0365 39.7411 61.4324 39.5161 60.9349 39.1371C60.4375 38.7344 60.0584 38.1421 59.7979 37.3604C59.5373 36.555 59.407 35.4179 59.407 33.9491V26.594H64.2041V34.4111Z" fill="white"/>
<path d="M64.4415 16.258C64.5429 16.1395 64.6119 15.9888 64.6398 15.8249C64.6677 15.6609 64.6532 15.4911 64.5983 15.3367C64.5433 15.1822 64.4503 15.0501 64.3308 14.957C64.2114 14.8638 64.071 14.8137 63.9271 14.813H59.5498C59.4049 14.8035 59.2609 14.8444 59.1361 14.9304C59.0114 15.0165 58.9116 15.1438 58.8494 15.2961C58.7899 15.4414 58.7707 15.6045 58.7942 15.7631C58.8177 15.9217 58.8828 16.0679 58.9807 16.1817C59.4987 17.2962 59.4987 22.396 59.0354 23.4342C58.934 23.5527 58.865 23.7034 58.8371 23.8673C58.8092 24.0312 58.8237 24.2011 58.8786 24.3555C58.9336 24.5099 59.0266 24.642 59.1461 24.7352C59.2655 24.8284 59.4059 24.8785 59.5498 24.8792H63.9271C64.072 24.8887 64.216 24.8478 64.3408 24.7617C64.4655 24.6757 64.5653 24.5484 64.6275 24.3961C64.6869 24.2508 64.7062 24.0876 64.6827 23.9291C64.6592 23.7705 64.5941 23.6243 64.4962 23.5104C63.9782 22.396 63.9782 17.2962 64.4415 16.258Z" fill="white"/>
<path d="M64.4415 5.30073C64.5429 5.18222 64.6119 5.03153 64.6398 4.86759C64.6677 4.70366 64.6532 4.53381 64.5983 4.37938C64.5433 4.22496 64.4503 4.09285 64.3308 3.99968C64.2114 3.90651 64.071 3.85642 63.9271 3.85572H59.5498C59.4049 3.84621 59.2609 3.8871 59.1361 3.97315C59.0114 4.0592 58.9116 4.18651 58.8494 4.3388C58.7899 4.48413 58.7707 4.64726 58.7942 4.80582C58.8177 4.96438 58.8828 5.11061 58.9807 5.22446C59.4987 6.33894 59.4987 11.4387 59.0354 12.4769C58.934 12.5954 58.865 12.7461 58.8371 12.91C58.8092 13.074 58.8237 13.2438 58.8786 13.3982C58.9336 13.5527 59.0266 13.6848 59.1461 13.7779C59.2655 13.8711 59.4059 13.9212 59.5498 13.9219H63.9271C64.072 13.9314 64.216 13.8905 64.3408 13.8045C64.4655 13.7184 64.5653 13.5911 64.6275 13.4388C64.6869 13.2935 64.7062 13.1304 64.6827 12.9718C64.6592 12.8132 64.5941 12.667 64.4962 12.5532C63.9782 11.4387 63.9782 6.33894 64.4415 5.30073Z" fill="white"/>
</svg>
